<svg id="katman_1" data-name="katman 1" xmlns="http://www.w3.org/2000/svg" viewBox="0 0 787.5 517.97"><path d="M361.58,548.3H258.86a3.21,3.21,0,0,1-2.5-1.2l-128-159.67a3.2,3.2,0,0,0-5.69,2V545.11a3.19,3.19,0,0,1-3.19,3.19H30.39a3.2,3.2,0,0,1-3.2-3.19V33.52a3.2,3.2,0,0,1,3.2-3.19h89.07a3.19,3.19,0,0,1,3.19,3.19V331.84a3.19,3.19,0,0,0,5.71,2L249,179.55a3.2,3.2,0,0,1,2.52-1.23H357.16a3.2,3.2,0,0,1,2.48,5.21L216.79,359.07a3.19,3.19,0,0,0,0,4l147.25,180A3.2,3.2,0,0,1,361.58,548.3Z" transform="translate(-27.19 -30.33)"/><path d="M651.84,304.16q0,42-21.77,73.6h.51L518.53,546.87a3.2,3.2,0,0,1-2.66,1.43H441.74a3.19,3.19,0,0,1-2.63-5l74.18-108.42a3.18,3.18,0,0,0-2.53-5q-52.56-2.66-86.22-35.83Q389,359.11,389,304.16q0-55.47,36.55-90.71t94.6-35.25q58.56,0,95.11,35T651.84,304.16Zm-191.79,0q0,27,17.36,43t42.77,16.07q26.43,0,43.54-16.07t17.1-43q0-27-17.1-42.77t-43.54-15.81q-25.41,0-42.77,16.07T460.05,304.16Z" transform="translate(-27.19 -30.33)"/><path d="M752,179.11H811.5a3.19,3.19,0,0,1,3.19,3.2v362.8a3.19,3.19,0,0,1-3.19,3.19H745.11a3.19,3.19,0,0,1-3.2-3.19V260.33a3.2,3.2,0,0,0-4.06-3.08l-62.5,17.52a3.19,3.19,0,0,1-3.93-2.19L655.2,216.29a3.19,3.19,0,0,1,2-3.9l93.69-33.1A3.19,3.19,0,0,1,752,179.11Z" transform="translate(-27.19 -30.33)"/></svg>